<?xml version='1.0' encoding='UTF-8' standalone='no'?>
<!-- Created with Fritzing (http://www.fritzing.org/) -->
<svg xmlns:svg='http://www.w3.org/2000/svg' xmlns='http://www.w3.org/2000/svg' version='1.2' baseProfile='tiny' x='0in' y='0in' width='3.89806in' height='2.31458in' viewBox='0 0 280.66 166.65' >
<g partID='59250'><g transform='translate(234.899,93.384)' ><g id="schematic">
<g>
<path d="M13.5,14.966L9.9,14.966c-0.193,0,-0.35,-0.156,-0.35,-0.35s0.156,-0.35,0.35,-0.35L13.5,14.266c0.193,0,0.35,0.156,0.35,0.35S13.694,14.966,13.5,14.966z"/>
</g>
<g>
<path d="M9.9,14.966L6.3,14.966c-0.193,0,-0.35,-0.156,-0.35,-0.35s0.157,-0.35,0.35,-0.35l3.6,0c0.193,0,0.35,0.156,0.35,0.35S10.093,14.966,9.9,14.966z"/>
</g>
<g>
<polygon points="9.9,14.616,6.3,7.416,9.9,7.416,13.5,7.416" fill="#FFFFFF"/>
<path d="M9.9,15.398L5.734,7.066l8.333,0L9.9,15.398zM6.866,7.766L9.9,13.834l3.034,-6.068L6.866,7.766z"/>
</g>
<g>
<path d="M9.9,14.841c-0.124,0,-0.225,-0.101,-0.225,-0.225l0,-7.2c0,-0.124,0.101,-0.225,0.225,-0.225s0.225,0.101,0.225,0.225l0,7.2C10.124,14.74,10.024,14.841,9.9,14.841z"/>
</g>
<g>
<path d="M1.8,12.141c-0.058,0,-0.115,-0.021,-0.159,-0.065c-0.088,-0.088,-0.088,-0.23,0,-0.318l2.34,-2.341c0.088,-0.088,0.23,-0.088,0.318,0s0.088,0.23,0,0.318l-2.34,2.341C1.915,12.12,1.858,12.141,1.8,12.141z"/>
</g>
<g>
<path d="M2.16,15.381c-0.058,0,-0.115,-0.021,-0.159,-0.065c-0.088,-0.088,-0.088,-0.23,0,-0.318l2.34,-2.34c0.088,-0.088,0.23,-0.088,0.318,0s0.088,0.23,0,0.318l-2.34,2.34C2.276,15.359,2.218,15.381,2.16,15.381z"/>
</g>
<g id="connector0pin">
<path d="M9.9,22.166c-0.193,0,-0.35,-0.156,-0.35,-0.35l0,-7.2c0,-0.193,0.156,-0.35,0.35,-0.35s0.35,0.156,0.35,0.35l0,7.2C10.249,22.01,10.093,22.166,9.9,22.166z" fill="#787878"/>
</g>
<g id="connector0terminal">
<rect height="0.001" x="9.9" width="0.001" fill="none" y="21.816"/>
</g>
<g transform="matrix(1, 0, 0, 1, 3.429, 6.4262)">
<g>
<g transform="rotate(270)">
<g>
<g enable-background="new    ">
<path d="M-11.647,5.54l-0.891,0L-12.538,5.388l0.342,-0.372c0.049,-0.053,0.093,-0.101,0.131,-0.145s0.071,-0.086,0.099,-0.128c0.026,-0.042,0.047,-0.084,0.062,-0.125c0.015,-0.043,0.021,-0.088,0.021,-0.138c0,-0.038,-0.005,-0.072,-0.017,-0.102s-0.027,-0.054,-0.047,-0.075c-0.021,-0.02,-0.045,-0.035,-0.073,-0.046s-0.06,-0.016,-0.094,-0.016c-0.062,0,-0.118,0.013,-0.167,0.038c-0.051,0.024,-0.098,0.057,-0.143,0.096l-0.1,-0.116c0.025,-0.023,0.055,-0.046,0.084,-0.065c0.029,-0.021,0.063,-0.039,0.097,-0.054s0.071,-0.026,0.109,-0.036c0.038,-0.008,0.079,-0.013,0.121,-0.013c0.063,0,0.119,0.009,0.169,0.026c0.051,0.018,0.094,0.043,0.129,0.076c0.035,0.032,0.063,0.072,0.082,0.119c0.019,0.048,0.028,0.101,0.028,0.16c0,0.056,-0.009,0.108,-0.026,0.158c-0.017,0.05,-0.041,0.1,-0.07,0.148c-0.031,0.048,-0.066,0.097,-0.109,0.146c-0.041,0.049,-0.087,0.1,-0.136,0.152L-12.32,5.37l0,0.008l0.673,0L-11.647,5.54z" fill="#787878"/>
</g>
</g>
</g>
</g>
</g>
<g id="connector1pin">
<path d="M9.9,7.766c-0.193,0,-0.35,-0.157,-0.35,-0.35l0,-7.2c0,-0.193,0.156,-0.35,0.35,-0.35s0.35,0.157,0.35,0.35l0,7.2C10.249,7.609,10.093,7.766,9.9,7.766z" fill="#787878"/>
</g>
<g id="connector1terminal">
<polygon points="9.9,0.216,9.901,0.216,9.901,0.216" fill="none"/>
</g>
<g transform="matrix(1, 0, 0, 1, 3.429, 1.3462)">
<g>
<g transform="rotate(270)">
<g>
<g enable-background="new    ">
<path d="M-2.616,5.54l-0.172,0L-2.788,4.648c0,-0.028,0,-0.058,0,-0.09s0.001,-0.063,0.002,-0.095c0.001,-0.032,0.002,-0.063,0.003,-0.092c0.001,-0.028,0.002,-0.054,0.002,-0.076c-0.011,0.012,-0.021,0.021,-0.029,0.03s-0.017,0.017,-0.026,0.024s-0.018,0.016,-0.028,0.025c-0.01,0.008,-0.021,0.019,-0.035,0.03l-0.145,0.118l-0.094,-0.12l0.374,-0.292l0.146,0L-2.618,5.54z" fill="#787878"/>
</g>
</g>
</g>
</g>
</g>
<g>
<path d="M0.18,13.536l1.08,-2.521l1.44,1.438L0.18,13.536z"/>
</g>
<g>
<path d="M0.54,16.776l1.08,-2.521l1.438,1.438L0.54,16.776z"/>
</g>
</g>
</g></g><g partID='59010'><g transform='translate(177.299,93.384)' ><g id="schematic">
<g>
<path d="M13.5,14.966L9.9,14.966c-0.193,0,-0.35,-0.156,-0.35,-0.35s0.156,-0.35,0.35,-0.35L13.5,14.266c0.193,0,0.35,0.156,0.35,0.35S13.694,14.966,13.5,14.966z"/>
</g>
<g>
<path d="M9.9,14.966L6.3,14.966c-0.193,0,-0.35,-0.156,-0.35,-0.35s0.157,-0.35,0.35,-0.35l3.6,0c0.193,0,0.35,0.156,0.35,0.35S10.093,14.966,9.9,14.966z"/>
</g>
<g>
<polygon points="9.9,14.616,6.3,7.416,9.9,7.416,13.5,7.416" fill="#FFFFFF"/>
<path d="M9.9,15.398L5.734,7.066l8.333,0L9.9,15.398zM6.866,7.766L9.9,13.834l3.034,-6.068L6.866,7.766z"/>
</g>
<g>
<path d="M9.9,14.841c-0.124,0,-0.225,-0.101,-0.225,-0.225l0,-7.2c0,-0.124,0.101,-0.225,0.225,-0.225s0.225,0.101,0.225,0.225l0,7.2C10.124,14.74,10.024,14.841,9.9,14.841z"/>
</g>
<g>
<path d="M1.8,12.141c-0.058,0,-0.115,-0.021,-0.159,-0.065c-0.088,-0.088,-0.088,-0.23,0,-0.318l2.34,-2.341c0.088,-0.088,0.23,-0.088,0.318,0s0.088,0.23,0,0.318l-2.34,2.341C1.915,12.12,1.858,12.141,1.8,12.141z"/>
</g>
<g>
<path d="M2.16,15.381c-0.058,0,-0.115,-0.021,-0.159,-0.065c-0.088,-0.088,-0.088,-0.23,0,-0.318l2.34,-2.34c0.088,-0.088,0.23,-0.088,0.318,0s0.088,0.23,0,0.318l-2.34,2.34C2.276,15.359,2.218,15.381,2.16,15.381z"/>
</g>
<g id="connector0pin">
<path d="M9.9,22.166c-0.193,0,-0.35,-0.156,-0.35,-0.35l0,-7.2c0,-0.193,0.156,-0.35,0.35,-0.35s0.35,0.156,0.35,0.35l0,7.2C10.249,22.01,10.093,22.166,9.9,22.166z" fill="#787878"/>
</g>
<g id="connector0terminal">
<rect height="0.001" x="9.9" width="0.001" fill="none" y="21.816"/>
</g>
<g transform="matrix(1, 0, 0, 1, 3.429, 6.4262)">
<g>
<g transform="rotate(270)">
<g>
<g enable-background="new    ">
<path d="M-11.647,5.54l-0.891,0L-12.538,5.388l0.342,-0.372c0.049,-0.053,0.093,-0.101,0.131,-0.145s0.071,-0.086,0.099,-0.128c0.026,-0.042,0.047,-0.084,0.062,-0.125c0.015,-0.043,0.021,-0.088,0.021,-0.138c0,-0.038,-0.005,-0.072,-0.017,-0.102s-0.027,-0.054,-0.047,-0.075c-0.021,-0.02,-0.045,-0.035,-0.073,-0.046s-0.06,-0.016,-0.094,-0.016c-0.062,0,-0.118,0.013,-0.167,0.038c-0.051,0.024,-0.098,0.057,-0.143,0.096l-0.1,-0.116c0.025,-0.023,0.055,-0.046,0.084,-0.065c0.029,-0.021,0.063,-0.039,0.097,-0.054s0.071,-0.026,0.109,-0.036c0.038,-0.008,0.079,-0.013,0.121,-0.013c0.063,0,0.119,0.009,0.169,0.026c0.051,0.018,0.094,0.043,0.129,0.076c0.035,0.032,0.063,0.072,0.082,0.119c0.019,0.048,0.028,0.101,0.028,0.16c0,0.056,-0.009,0.108,-0.026,0.158c-0.017,0.05,-0.041,0.1,-0.07,0.148c-0.031,0.048,-0.066,0.097,-0.109,0.146c-0.041,0.049,-0.087,0.1,-0.136,0.152L-12.32,5.37l0,0.008l0.673,0L-11.647,5.54z" fill="#787878"/>
</g>
</g>
</g>
</g>
</g>
<g id="connector1pin">
<path d="M9.9,7.766c-0.193,0,-0.35,-0.157,-0.35,-0.35l0,-7.2c0,-0.193,0.156,-0.35,0.35,-0.35s0.35,0.157,0.35,0.35l0,7.2C10.249,7.609,10.093,7.766,9.9,7.766z" fill="#787878"/>
</g>
<g id="connector1terminal">
<polygon points="9.9,0.216,9.901,0.216,9.901,0.216" fill="none"/>
</g>
<g transform="matrix(1, 0, 0, 1, 3.429, 1.3462)">
<g>
<g transform="rotate(270)">
<g>
<g enable-background="new    ">
<path d="M-2.616,5.54l-0.172,0L-2.788,4.648c0,-0.028,0,-0.058,0,-0.09s0.001,-0.063,0.002,-0.095c0.001,-0.032,0.002,-0.063,0.003,-0.092c0.001,-0.028,0.002,-0.054,0.002,-0.076c-0.011,0.012,-0.021,0.021,-0.029,0.03s-0.017,0.017,-0.026,0.024s-0.018,0.016,-0.028,0.025c-0.01,0.008,-0.021,0.019,-0.035,0.03l-0.145,0.118l-0.094,-0.12l0.374,-0.292l0.146,0L-2.618,5.54z" fill="#787878"/>
</g>
</g>
</g>
</g>
</g>
<g>
<path d="M0.18,13.536l1.08,-2.521l1.44,1.438L0.18,13.536z"/>
</g>
<g>
<path d="M0.54,16.776l1.08,-2.521l1.438,1.438L0.54,16.776z"/>
</g>
</g>
</g></g><g partID='58220'><g transform='translate(126.899,93.384)' ><g id="schematic">
<g>
<path d="M13.5,14.966L9.9,14.966c-0.193,0,-0.35,-0.156,-0.35,-0.35s0.156,-0.35,0.35,-0.35L13.5,14.266c0.193,0,0.35,0.156,0.35,0.35S13.694,14.966,13.5,14.966z"/>
</g>
<g>
<path d="M9.9,14.966L6.3,14.966c-0.193,0,-0.35,-0.156,-0.35,-0.35s0.157,-0.35,0.35,-0.35l3.6,0c0.193,0,0.35,0.156,0.35,0.35S10.093,14.966,9.9,14.966z"/>
</g>
<g>
<polygon points="9.9,14.616,6.3,7.416,9.9,7.416,13.5,7.416" fill="#FFFFFF"/>
<path d="M9.9,15.398L5.734,7.066l8.333,0L9.9,15.398zM6.866,7.766L9.9,13.834l3.034,-6.068L6.866,7.766z"/>
</g>
<g>
<path d="M9.9,14.841c-0.124,0,-0.225,-0.101,-0.225,-0.225l0,-7.2c0,-0.124,0.101,-0.225,0.225,-0.225s0.225,0.101,0.225,0.225l0,7.2C10.124,14.74,10.024,14.841,9.9,14.841z"/>
</g>
<g>
<path d="M1.8,12.141c-0.058,0,-0.115,-0.021,-0.159,-0.065c-0.088,-0.088,-0.088,-0.23,0,-0.318l2.34,-2.341c0.088,-0.088,0.23,-0.088,0.318,0s0.088,0.23,0,0.318l-2.34,2.341C1.915,12.12,1.858,12.141,1.8,12.141z"/>
</g>
<g>
<path d="M2.16,15.381c-0.058,0,-0.115,-0.021,-0.159,-0.065c-0.088,-0.088,-0.088,-0.23,0,-0.318l2.34,-2.34c0.088,-0.088,0.23,-0.088,0.318,0s0.088,0.23,0,0.318l-2.34,2.34C2.276,15.359,2.218,15.381,2.16,15.381z"/>
</g>
<g id="connector0pin">
<path d="M9.9,22.166c-0.193,0,-0.35,-0.156,-0.35,-0.35l0,-7.2c0,-0.193,0.156,-0.35,0.35,-0.35s0.35,0.156,0.35,0.35l0,7.2C10.249,22.01,10.093,22.166,9.9,22.166z" fill="#787878"/>
</g>
<g id="connector0terminal">
<rect height="0.001" x="9.9" width="0.001" fill="none" y="21.816"/>
</g>
<g transform="matrix(1, 0, 0, 1, 3.429, 6.4262)">
<g>
<g transform="rotate(270)">
<g>
<g enable-background="new    ">
<path d="M-11.647,5.54l-0.891,0L-12.538,5.388l0.342,-0.372c0.049,-0.053,0.093,-0.101,0.131,-0.145s0.071,-0.086,0.099,-0.128c0.026,-0.042,0.047,-0.084,0.062,-0.125c0.015,-0.043,0.021,-0.088,0.021,-0.138c0,-0.038,-0.005,-0.072,-0.017,-0.102s-0.027,-0.054,-0.047,-0.075c-0.021,-0.02,-0.045,-0.035,-0.073,-0.046s-0.06,-0.016,-0.094,-0.016c-0.062,0,-0.118,0.013,-0.167,0.038c-0.051,0.024,-0.098,0.057,-0.143,0.096l-0.1,-0.116c0.025,-0.023,0.055,-0.046,0.084,-0.065c0.029,-0.021,0.063,-0.039,0.097,-0.054s0.071,-0.026,0.109,-0.036c0.038,-0.008,0.079,-0.013,0.121,-0.013c0.063,0,0.119,0.009,0.169,0.026c0.051,0.018,0.094,0.043,0.129,0.076c0.035,0.032,0.063,0.072,0.082,0.119c0.019,0.048,0.028,0.101,0.028,0.16c0,0.056,-0.009,0.108,-0.026,0.158c-0.017,0.05,-0.041,0.1,-0.07,0.148c-0.031,0.048,-0.066,0.097,-0.109,0.146c-0.041,0.049,-0.087,0.1,-0.136,0.152L-12.32,5.37l0,0.008l0.673,0L-11.647,5.54z" fill="#787878"/>
</g>
</g>
</g>
</g>
</g>
<g id="connector1pin">
<path d="M9.9,7.766c-0.193,0,-0.35,-0.157,-0.35,-0.35l0,-7.2c0,-0.193,0.156,-0.35,0.35,-0.35s0.35,0.157,0.35,0.35l0,7.2C10.249,7.609,10.093,7.766,9.9,7.766z" fill="#787878"/>
</g>
<g id="connector1terminal">
<polygon points="9.9,0.216,9.901,0.216,9.901,0.216" fill="none"/>
</g>
<g transform="matrix(1, 0, 0, 1, 3.429, 1.3462)">
<g>
<g transform="rotate(270)">
<g>
<g enable-background="new    ">
<path d="M-2.616,5.54l-0.172,0L-2.788,4.648c0,-0.028,0,-0.058,0,-0.09s0.001,-0.063,0.002,-0.095c0.001,-0.032,0.002,-0.063,0.003,-0.092c0.001,-0.028,0.002,-0.054,0.002,-0.076c-0.011,0.012,-0.021,0.021,-0.029,0.03s-0.017,0.017,-0.026,0.024s-0.018,0.016,-0.028,0.025c-0.01,0.008,-0.021,0.019,-0.035,0.03l-0.145,0.118l-0.094,-0.12l0.374,-0.292l0.146,0L-2.618,5.54z" fill="#787878"/>
</g>
</g>
</g>
</g>
</g>
<g>
<path d="M0.18,13.536l1.08,-2.521l1.44,1.438L0.18,13.536z"/>
</g>
<g>
<path d="M0.54,16.776l1.08,-2.521l1.438,1.438L0.54,16.776z"/>
</g>
</g>
</g></g><g partID='58190'><g id="schematic">
<rect height="135.9" stroke-width="0.9" stroke-linecap="round" x="14.85" width="78.3" stroke="#000000" fill="#FFFFFF" class="interior rect" y="14.85"/>
<line id="connector61pin" x2="107.65" y2="28.8" stroke-width="0.699999" stroke-linecap="round" x1="93.2499" stroke="#787878" fill="none" class="pin" y1="28.8"/>
<text font-size="3.49999" text-anchor="end" font-family="'Droid Sans'" stroke-width="0" x="91.8499" stroke="none" fill="#8c8c8c" class="text" y="29.4999">D0/RX</text>
<g id="connector61terminal" height="0.699999" stroke-width="0" x="107.65" width="0.699999" stroke="none" fill="none" class="terminal" y="28.4499"/>
<line id="connector62pin" x2="107.65" y2="36" stroke-width="0.699999" stroke-linecap="round" x1="93.2499" stroke="#787878" fill="none" class="pin" y1="36"/>
<text font-size="3.49999" text-anchor="end" font-family="'Droid Sans'" stroke-width="0" x="91.8499" stroke="none" fill="#8c8c8c" class="text" y="36.6999">D1/TX</text>
<g id="connector62terminal" height="0.699999" stroke-width="0" x="107.65" width="0.699999" stroke="none" fill="none" class="terminal" y="35.6499"/>
<line id="connector63pin" x2="107.65" y2="43.2" stroke-width="0.699999" stroke-linecap="round" x1="93.2499" stroke="#787878" fill="none" class="pin" y1="43.2"/>
<text font-size="3.49999" text-anchor="end" font-family="'Droid Sans'" stroke-width="0" x="91.8499" stroke="none" fill="#8c8c8c" class="text" y="43.8999">D2</text>
<g id="connector63terminal" height="0.699999" stroke-width="0" x="107.65" width="0.699999" stroke="none" fill="none" class="terminal" y="42.8499"/>
<line id="connector64pin" x2="107.65" y2="50.4" stroke-width="0.699999" stroke-linecap="round" x1="93.2499" stroke="#787878" fill="none" class="pin" y1="50.4"/>
<text font-size="3.49999" text-anchor="end" font-family="'Droid Sans'" stroke-width="0" x="91.8499" stroke="none" fill="#8c8c8c" class="text" y="51.0999">D3 PWM</text>
<g id="connector64terminal" height="0.699999" stroke-width="0" x="107.65" width="0.699999" stroke="none" fill="none" class="terminal" y="50.0499"/>
<line id="connector65pin" x2="107.65" y2="57.6" stroke-width="0.699999" stroke-linecap="round" x1="93.2499" stroke="#787878" fill="none" class="pin" y1="57.6"/>
<text font-size="3.49999" text-anchor="end" font-family="'Droid Sans'" stroke-width="0" x="91.8499" stroke="none" fill="#8c8c8c" class="text" y="58.2999">D4</text>
<g id="connector65terminal" height="0.699999" stroke-width="0" x="107.65" width="0.699999" stroke="none" fill="none" class="terminal" y="57.2499"/>
<line id="connector66pin" x2="107.65" y2="64.8" stroke-width="0.699999" stroke-linecap="round" x1="93.2499" stroke="#787878" fill="none" class="pin" y1="64.8"/>
<text font-size="3.49999" text-anchor="end" font-family="'Droid Sans'" stroke-width="0" x="91.8499" stroke="none" fill="#8c8c8c" class="text" y="65.4999">D5 PWM</text>
<g id="connector66terminal" height="0.699999" stroke-width="0" x="107.65" width="0.699999" stroke="none" fill="none" class="terminal" y="64.4499"/>
<line id="connector67pin" x2="107.65" y2="72" stroke-width="0.699999" stroke-linecap="round" x1="93.2499" stroke="#787878" fill="none" class="pin" y1="72"/>
<text font-size="3.49999" text-anchor="end" font-family="'Droid Sans'" stroke-width="0" x="91.8499" stroke="none" fill="#8c8c8c" class="text" y="72.6999">D6 PWM</text>
<g id="connector67terminal" height="0.699999" stroke-width="0" x="107.65" width="0.699999" stroke="none" fill="none" class="terminal" y="71.6499"/>
<line id="connector68pin" x2="107.65" y2="79.2" stroke-width="0.699999" stroke-linecap="round" x1="93.2499" stroke="#787878" fill="none" class="pin" y1="79.2"/>
<text font-size="3.49999" text-anchor="end" font-family="'Droid Sans'" stroke-width="0" x="91.8499" stroke="none" fill="#8c8c8c" class="text" y="79.8999">D7</text>
<g id="connector68terminal" height="0.699999" stroke-width="0" x="107.65" width="0.699999" stroke="none" fill="none" class="terminal" y="78.8499"/>
<line id="connector51pin" x2="107.65" y2="86.4" stroke-width="0.699999" stroke-linecap="round" x1="93.2499" stroke="#787878" fill="none" class="pin" y1="86.4"/>
<text font-size="3.49999" text-anchor="end" font-family="'Droid Sans'" stroke-width="0" x="91.8499" stroke="none" fill="#8c8c8c" class="text" y="87.0999">D8</text>
<g id="connector51terminal" height="0.699999" stroke-width="0" x="107.65" width="0.699999" stroke="none" fill="none" class="terminal" y="86.0499"/>
<line id="connector52pin" x2="107.65" y2="93.6" stroke-width="0.699999" stroke-linecap="round" x1="93.2499" stroke="#787878" fill="none" class="pin" y1="93.6"/>
<text font-size="3.49999" text-anchor="end" font-family="'Droid Sans'" stroke-width="0" x="91.8499" stroke="none" fill="#8c8c8c" class="text" y="94.2999">D9 PWM</text>
<g id="connector52terminal" height="0.699999" stroke-width="0" x="107.65" width="0.699999" stroke="none" fill="none" class="terminal" y="93.2499"/>
<line id="connector53pin" x2="107.65" y2="100.8" stroke-width="0.699999" stroke-linecap="round" x1="93.2499" stroke="#787878" fill="none" class="pin" y1="100.8"/>
<text font-size="3.49999" text-anchor="end" font-family="'Droid Sans'" stroke-width="0" x="91.8499" stroke="none" fill="#8c8c8c" class="text" y="101.5">D10 PWM/SS</text>
<g id="connector53terminal" height="0.699999" stroke-width="0" x="107.65" width="0.699999" stroke="none" fill="none" class="terminal" y="100.45"/>
<line id="connector54pin" x2="107.65" y2="108" stroke-width="0.699999" stroke-linecap="round" x1="93.2499" stroke="#787878" fill="none" class="pin" y1="108"/>
<text font-size="3.49999" text-anchor="end" font-family="'Droid Sans'" stroke-width="0" x="91.8499" stroke="none" fill="#8c8c8c" class="text" y="108.7">D11 PWM/MOSI</text>
<g id="connector54terminal" height="0.699999" stroke-width="0" x="107.65" width="0.699999" stroke="none" fill="none" class="terminal" y="107.65"/>
<line id="connector55pin" x2="107.65" y2="115.2" stroke-width="0.699999" stroke-linecap="round" x1="93.2499" stroke="#787878" fill="none" class="pin" y1="115.2"/>
<text font-size="3.49999" text-anchor="end" font-family="'Droid Sans'" stroke-width="0" x="91.8499" stroke="none" fill="#8c8c8c" class="text" y="115.9">D12/MISO</text>
<g id="connector55terminal" height="0.699999" stroke-width="0" x="107.65" width="0.699999" stroke="none" fill="none" class="terminal" y="114.85"/>
<line id="connector41pin" x2="107.65" y2="122.4" stroke-width="0" stroke-linecap="round" x1="93.2499" stroke="none" fill="none" class="pin" y1="122.4"/>
<rect id="connector41terminal" height="0.699999" stroke-width="0" x="107.65" width="0.699999" stroke="none" fill="none" class="terminal" y="122.05"/>
<line id="connector56pin" x2="107.65" y2="122.4" stroke-width="0.699999" stroke-linecap="round" x1="93.2499" stroke="#787878" fill="none" class="pin" y1="122.4"/>
<text font-size="3.49999" text-anchor="end" font-family="'Droid Sans'" stroke-width="0" x="91.8499" stroke="none" fill="#8c8c8c" class="text" y="123.1">D13/SCK</text>
<g id="connector56terminal" height="0.699999" stroke-width="0" x="107.65" width="0.699999" stroke="none" fill="none" class="terminal" y="122.05"/>
<line id="connector43pin" x2="14.75" y2="28.8" stroke-width="0" stroke-linecap="round" x1="0.349999" stroke="none" fill="none" class="pin" y1="28.8"/>
<rect id="connector43terminal" height="0.699999" stroke-width="0" x="-0.349999" width="0.699999" stroke="none" fill="none" class="terminal" y="28.4499"/>
<line id="connector85pin" x2="14.75" y2="28.8" stroke-width="0.699999" stroke-linecap="round" x1="0.349999" stroke="#787878" fill="none" class="pin" y1="28.8"/>
<text font-size="3.49999" text-anchor="start" font-family="'Droid Sans'" stroke-width="0" x="16.15" stroke="none" fill="#8c8c8c" class="text" y="29.4999">RESET</text>
<g id="connector85terminal" height="0.699999" stroke-width="0" x="-0.349999" width="0.699999" stroke="none" fill="none" class="terminal" y="28.4499"/>
<line id="connector49pin" x2="14.75" y2="36" stroke-width="0.699999" stroke-linecap="round" x1="0.349999" stroke="#787878" fill="none" class="pin" y1="36"/>
<text font-size="3.49999" text-anchor="start" font-family="'Droid Sans'" stroke-width="0" x="16.15" stroke="none" fill="#8c8c8c" class="text" y="36.6999">RESET2</text>
<rect id="connector49terminal" height="0.699999" stroke-width="0" x="-0.349999" width="0.699999" stroke="none" fill="none" class="terminal" y="35.6499"/>
<line id="connector58pin" x2="14.75" y2="43.2" stroke-width="0.699999" stroke-linecap="round" x1="0.349999" stroke="#787878" fill="none" class="pin" y1="43.2"/>
<text font-size="3.49999" text-anchor="start" font-family="'Droid Sans'" stroke-width="0" x="16.15" stroke="none" fill="#8c8c8c" class="text" y="43.8999">AREF</text>
<g id="connector58terminal" height="0.699999" stroke-width="0" x="-0.349999" width="0.699999" stroke="none" fill="none" class="terminal" y="42.8499"/>
<line id="connector84pin" x2="14.75" y2="50.4" stroke-width="0.699999" stroke-linecap="round" x1="0.349999" stroke="#787878" fill="none" class="pin" y1="50.4"/>
<text font-size="3.49999" text-anchor="start" font-family="'Droid Sans'" stroke-width="0" x="16.15" stroke="none" fill="#8c8c8c" class="text" y="51.0999">ioref</text>
<g id="connector84terminal" height="0.699999" stroke-width="0" x="-0.349999" width="0.699999" stroke="none" fill="none" class="terminal" y="50.0499"/>
<line id="connector0pin" x2="14.75" y2="64.8" stroke-width="0.699999" stroke-linecap="round" x1="0.349999" stroke="#787878" fill="none" class="pin" y1="64.8"/>
<text font-size="3.49999" text-anchor="start" font-family="'Droid Sans'" stroke-width="0" x="16.15" stroke="none" fill="#8c8c8c" class="text" y="65.4999">A0</text>
<g id="connector0terminal" height="0.699999" stroke-width="0" x="-0.349999" width="0.699999" stroke="none" fill="none" class="terminal" y="64.4499"/>
<line id="connector1pin" x2="14.75" y2="72" stroke-width="0.699999" stroke-linecap="round" x1="0.349999" stroke="#787878" fill="none" class="pin" y1="72"/>
<text font-size="3.49999" text-anchor="start" font-family="'Droid Sans'" stroke-width="0" x="16.15" stroke="none" fill="#8c8c8c" class="text" y="72.6999">A1</text>
<g id="connector1terminal" height="0.699999" stroke-width="0" x="-0.349999" width="0.699999" stroke="none" fill="none" class="terminal" y="71.6499"/>
<line id="connector2pin" x2="14.75" y2="79.2" stroke-width="0.699999" stroke-linecap="round" x1="0.349999" stroke="#787878" fill="none" class="pin" y1="79.2"/>
<text font-size="3.49999" text-anchor="start" font-family="'Droid Sans'" stroke-width="0" x="16.15" stroke="none" fill="#8c8c8c" class="text" y="79.8999">A2</text>
<g id="connector2terminal" height="0.699999" stroke-width="0" x="-0.349999" width="0.699999" stroke="none" fill="none" class="terminal" y="78.8499"/>
<line id="connector3pin" x2="14.75" y2="86.4" stroke-width="0.699999" stroke-linecap="round" x1="0.349999" stroke="#787878" fill="none" class="pin" y1="86.4"/>
<text font-size="3.49999" text-anchor="start" font-family="'Droid Sans'" stroke-width="0" x="16.15" stroke="none" fill="#8c8c8c" class="text" y="87.0999">A3</text>
<g id="connector3terminal" height="0.699999" stroke-width="0" x="-0.349999" width="0.699999" stroke="none" fill="none" class="terminal" y="86.0499"/>
<line id="connector48pin" x2="14.75" y2="93.6" stroke-width="0" stroke-linecap="round" x1="0.349999" stroke="none" fill="none" class="pin" y1="93.6"/>
<rect id="connector48terminal" height="0.699999" stroke-width="0" x="-0.349999" width="0.699999" stroke="none" fill="none" class="terminal" y="93.2499"/>
<line id="connector45pin" x2="14.75" y2="93.6" stroke-width="0" stroke-linecap="round" x1="0.349999" stroke="none" fill="none" class="pin" y1="93.6"/>
<rect id="connector45terminal" height="0.699999" stroke-width="0" x="-0.349999" width="0.699999" stroke="none" fill="none" class="terminal" y="93.2499"/>
<line id="connector4pin" x2="14.75" y2="93.6" stroke-width="0" stroke-linecap="round" x1="0.349999" stroke="none" fill="none" class="pin" y1="93.6"/>
<g id="connector4terminal" height="0.699999" stroke-width="0" x="-0.349999" width="0.699999" stroke="none" fill="none" class="terminal" y="93.2499"/>
<line id="connector39pin" x2="14.75" y2="93.6" stroke-width="0" stroke-linecap="round" x1="0.349999" stroke="none" fill="none" class="pin" y1="93.6"/>
<rect id="connector39terminal" height="0.699999" stroke-width="0" x="-0.349999" width="0.699999" stroke="none" fill="none" class="terminal" y="93.2499"/>
<line id="connector47pin" x2="14.75" y2="93.6" stroke-width="0" stroke-linecap="round" x1="0.349999" stroke="none" fill="none" class="pin" y1="93.6"/>
<rect id="connector47terminal" height="0.699999" stroke-width="0" x="-0.349999" width="0.699999" stroke="none" fill="none" class="terminal" y="93.2499"/>
<line id="connector42pin" x2="14.75" y2="93.6" stroke-width="0" stroke-linecap="round" x1="0.349999" stroke="none" fill="none" class="pin" y1="93.6"/>
<rect id="connector42terminal" height="0.699999" stroke-width="0" x="-0.349999" width="0.699999" stroke="none" fill="none" class="terminal" y="93.2499"/>
<line id="connector59pin" x2="14.75" y2="93.6" stroke-width="0.699999" stroke-linecap="round" x1="0.349999" stroke="#787878" fill="none" class="pin" y1="93.6"/>
<text font-size="3.49999" text-anchor="start" font-family="'Droid Sans'" stroke-width="0" x="16.15" stroke="none" fill="#8c8c8c" class="text" y="94.2999">A4/SDA</text>
<g id="connector59terminal" height="0.699999" stroke-width="0" x="-0.349999" width="0.699999" stroke="none" fill="none" class="terminal" y="93.2499"/>
<line id="connector5pin" x2="14.75" y2="100.8" stroke-width="0" stroke-linecap="round" x1="0.349999" stroke="none" fill="none" class="pin" y1="100.8"/>
<g id="connector5terminal" height="0.699999" stroke-width="0" x="-0.349999" width="0.699999" stroke="none" fill="none" class="terminal" y="100.45"/>
<line id="connector60pin" x2="14.75" y2="100.8" stroke-width="0.699999" stroke-linecap="round" x1="0.349999" stroke="#787878" fill="none" class="pin" y1="100.8"/>
<text font-size="3.49999" text-anchor="start" font-family="'Droid Sans'" stroke-width="0" x="16.15" stroke="none" fill="#8c8c8c" class="text" y="101.5">A5/SCL</text>
<g id="connector60terminal" height="0.699999" stroke-width="0" x="-0.349999" width="0.699999" stroke="none" fill="none" class="terminal" y="100.45"/>
<line id="connector91pin" x2="14.75" y2="136.8" stroke-width="0.699999" stroke-linecap="round" x1="0.349999" stroke="#787878" fill="none" class="pin" y1="136.8"/>
<text font-size="3.49999" text-anchor="start" font-family="'Droid Sans'" stroke-width="0" x="16.15" stroke="none" fill="#8c8c8c" class="text" y="137.5">N/C</text>
<g id="connector91terminal" height="0.699999" stroke-width="0" x="-0.349999" width="0.699999" stroke="none" fill="none" class="terminal" y="136.45"/>
<line id="connector88pin" x2="57.6" y2="165.25" stroke-width="0" stroke-linecap="round" x1="57.6" stroke="none" fill="none" class="pin" y1="150.85"/>
<g id="connector88terminal" height="0.699999" stroke-width="0" x="57.2499" width="0.699999" stroke="none" fill="none" class="terminal" y="165.25"/>
<line id="connector57pin" x2="57.6" y2="165.25" stroke-width="0" stroke-linecap="round" x1="57.6" stroke="none" fill="none" class="pin" y1="150.85"/>
<g id="connector57terminal" height="0.699999" stroke-width="0" x="57.2499" width="0.699999" stroke="none" fill="none" class="terminal" y="165.25"/>
<line id="connector44pin" x2="57.6" y2="165.25" stroke-width="0" stroke-linecap="round" x1="57.6" stroke="none" fill="none" class="pin" y1="150.85"/>
<rect id="connector44terminal" height="0.699999" stroke-width="0" x="57.2499" width="0.699999" stroke="none" fill="none" class="terminal" y="165.25"/>
<line id="connector50pin" x2="57.6" y2="165.25" stroke-width="0" stroke-linecap="round" x1="57.6" stroke="none" fill="none" class="pin" y1="150.85"/>
<rect id="connector50terminal" height="0.699999" stroke-width="0" x="57.2499" width="0.699999" stroke="none" fill="none" class="terminal" y="165.25"/>
<line id="connector89pin" x2="57.6" y2="165.25" stroke-width="0.699999" stroke-linecap="round" x1="57.6" stroke="#787878" fill="none" class="pin" y1="150.85"/>
<g transform="matrix(1, 0, 0, 1, 58.2999, 149.45)">
<g>
<g transform="rotate(270)">
<g>
<text font-size="3.49999" text-anchor="start" font-family="'Droid Sans'" stroke-width="0" x="0" stroke="none" fill="#8c8c8c" class="text" y="0">GND</text>
</g>
</g>
</g>
</g>
<g id="connector89terminal" height="0.699999" stroke-width="0" x="57.2499" width="0.699999" stroke="none" fill="none" class="terminal" y="165.25"/>
<line id="connector86pin" x2="36" y2="14.75" stroke-width="0.699999" stroke-linecap="round" x1="36" stroke="#787878" fill="none" class="pin" y1="0.349999"/>
<g transform="matrix(1, 0, 0, 1, 36.6999, 16.15)">
<g>
<g transform="rotate(270)">
<g>
<text font-size="3.49999" text-anchor="end" font-family="'Droid Sans'" stroke-width="0" x="0" stroke="none" fill="#8c8c8c" class="text" y="0">3V3</text>
</g>
</g>
</g>
</g>
<g id="connector86terminal" height="0.699999" stroke-width="0" x="35.6499" width="0.699999" stroke="none" fill="none" class="terminal" y="-0.349999"/>
<line id="connector40pin" x2="50.4" y2="14.75" stroke-width="0" stroke-linecap="round" x1="50.4" stroke="none" fill="none" class="pin" y1="0.349999"/>
<rect id="connector40terminal" height="0.699999" stroke-width="0" x="50.0499" width="0.699999" stroke="none" fill="none" class="terminal" y="-0.349999"/>
<line id="connector46pin" x2="50.4" y2="14.75" stroke-width="0" stroke-linecap="round" x1="50.4" stroke="none" fill="none" class="pin" y1="0.349999"/>
<rect id="connector46terminal" height="0.699999" stroke-width="0" x="50.0499" width="0.699999" stroke="none" fill="none" class="terminal" y="-0.349999"/>
<line id="connector87pin" x2="50.4" y2="14.75" stroke-width="0.699999" stroke-linecap="round" x1="50.4" stroke="#787878" fill="none" class="pin" y1="0.349999"/>
<g transform="matrix(1, 0, 0, 1, 51.0999, 16.15)">
<g>
<g transform="rotate(270)">
<g>
<text font-size="3.49999" text-anchor="end" font-family="'Droid Sans'" stroke-width="0" x="0" stroke="none" fill="#8c8c8c" class="text" y="0">5V</text>
</g>
</g>
</g>
</g>
<g id="connector87terminal" height="0.699999" stroke-width="0" x="50.0499" width="0.699999" stroke="none" fill="none" class="terminal" y="-0.349999"/>
<line id="connector90pin" x2="64.8" y2="14.75" stroke-width="0.699999" stroke-linecap="round" x1="64.8" stroke="#787878" fill="none" class="pin" y1="0.349999"/>
<g transform="matrix(1, 0, 0, 1, 65.4999, 16.15)">
<g>
<g transform="rotate(270)">
<g>
<text font-size="3.49999" text-anchor="end" font-family="'Droid Sans'" stroke-width="0" x="0" stroke="none" fill="#8c8c8c" class="text" y="0">VIN</text>
</g>
</g>
</g>
</g>
<g id="connector90terminal" height="0.699999" stroke-width="0" x="64.4499" width="0.699999" stroke="none" fill="none" class="terminal" y="-0.349999"/>
<text font-size="4.25001" text-anchor="middle" id="label" font-family="'Droid Sans'" stroke-width="0" x="54.4501" stroke="none" fill="#000000" class="text" y="76.4498">Arduino</text>
<text font-size="4.25001" text-anchor="middle" id="label" font-family="'Droid Sans'" stroke-width="0" x="54.4501" stroke="none" fill="#000000" class="text" y="80.9833">Uno</text>
<text font-size="4.25001" text-anchor="middle" id="label" font-family="'Droid Sans'" stroke-width="0" x="54.4501" stroke="none" fill="#000000" class="text" y="85.5167">(Rev3)</text>
</g>
</g><g partID='59270'><g transform='translate(247.896,136.45)' ><g transform='matrix(0,1,-1,0,0,0)'  ><g id="schematic" xmlns="http://www.w3.org/2000/svg">
<line x2="8.63003" y2="0.216" stroke-width="0.432002" stroke-linecap="round" xmlns="http://www.w3.org/2000/svg" x1="7.55002" stroke="#000000" class="other" y1="3.096"/>
<line x2="10.43" y2="5.976" stroke-width="0.432002" stroke-linecap="round" xmlns="http://www.w3.org/2000/svg" x1="8.63003" stroke="#000000" class="other" y1="0.216"/>
<line x2="12.23" y2="0.216" stroke-width="0.432002" stroke-linecap="round" xmlns="http://www.w3.org/2000/svg" x1="10.43" stroke="#000000" class="other" y1="5.976"/>
<line x2="14.03" y2="5.976" stroke-width="0.432002" stroke-linecap="round" xmlns="http://www.w3.org/2000/svg" x1="12.23" stroke="#000000" class="other" y1="0.216"/>
<line x2="15.8301" y2="0.216" stroke-width="0.432002" stroke-linecap="round" xmlns="http://www.w3.org/2000/svg" x1="14.03" stroke="#000000" class="other" y1="5.976"/>
<line x2="17.6301" y2="5.976" stroke-width="0.432002" stroke-linecap="round" xmlns="http://www.w3.org/2000/svg" x1="15.8301" stroke="#000000" class="other" y1="0.216"/>
<line x2="19.4301" y2="0.216" stroke-width="0.432002" stroke-linecap="round" xmlns="http://www.w3.org/2000/svg" x1="17.6301" stroke="#000000" class="other" y1="5.976"/>
<line x2="21.2301" y2="5.976" stroke-width="0.432002" stroke-linecap="round" xmlns="http://www.w3.org/2000/svg" x1="19.4301" stroke="#000000" class="other" y1="0.216"/>
<line x2="21.9501" y2="3.096" stroke-width="0.432002" stroke-linecap="round" xmlns="http://www.w3.org/2000/svg" x1="21.2301" stroke="#000000" class="other" y1="5.976"/>
<line id="connector1pin" x2="21.9501" y2="3.096" stroke-width="0.700001" stroke-linecap="round" xmlns="http://www.w3.org/2000/svg" x1="29.1502" stroke="#787878" class="pin" connectorname="2" y1="3.096"/>
<g id="connector1terminal" height="0.000283465" stroke-width="0" xmlns="http://www.w3.org/2000/svg" x="29.1502" width="0.000283466" stroke="none" fill="none" class="terminal" y="3.096"/>
<text font-size="2.50001" text-anchor="middle" font-family="'Droid Sans'" stroke-width="0" xmlns="http://www.w3.org/2000/svg" x="25.5501" stroke="none" fill="#8c8c8c" class="text" y="2.046">2</text>
<line id="connector0pin" x2="7.55002" y2="3.096" stroke-width="0.700001" stroke-linecap="round" xmlns="http://www.w3.org/2000/svg" x1="0.350001" stroke="#787878" class="pin" connectorname="1" y1="3.096"/>
<g id="connector0terminal" height="0.000283465" stroke-width="0" xmlns="http://www.w3.org/2000/svg" x="0.350001" width="0.000283466" stroke="none" fill="none" class="terminal" y="3.096"/>
<text font-size="2.50001" text-anchor="middle" font-family="'Droid Sans'" stroke-width="0" xmlns="http://www.w3.org/2000/svg" x="3.95001" stroke="none" fill="#8c8c8c" class="text" y="2.046">1</text>
</g>
</g></g></g><g partID='59170'><g transform='translate(190.296,136.45)' ><g transform='matrix(0,1,-1,0,0,0)'  ><g id="schematic" xmlns="http://www.w3.org/2000/svg">
<line x2="8.63003" y2="0.216" stroke-width="0.432002" stroke-linecap="round" xmlns="http://www.w3.org/2000/svg" x1="7.55002" stroke="#000000" class="other" y1="3.096"/>
<line x2="10.43" y2="5.976" stroke-width="0.432002" stroke-linecap="round" xmlns="http://www.w3.org/2000/svg" x1="8.63003" stroke="#000000" class="other" y1="0.216"/>
<line x2="12.23" y2="0.216" stroke-width="0.432002" stroke-linecap="round" xmlns="http://www.w3.org/2000/svg" x1="10.43" stroke="#000000" class="other" y1="5.976"/>
<line x2="14.03" y2="5.976" stroke-width="0.432002" stroke-linecap="round" xmlns="http://www.w3.org/2000/svg" x1="12.23" stroke="#000000" class="other" y1="0.216"/>
<line x2="15.8301" y2="0.216" stroke-width="0.432002" stroke-linecap="round" xmlns="http://www.w3.org/2000/svg" x1="14.03" stroke="#000000" class="other" y1="5.976"/>
<line x2="17.6301" y2="5.976" stroke-width="0.432002" stroke-linecap="round" xmlns="http://www.w3.org/2000/svg" x1="15.8301" stroke="#000000" class="other" y1="0.216"/>
<line x2="19.4301" y2="0.216" stroke-width="0.432002" stroke-linecap="round" xmlns="http://www.w3.org/2000/svg" x1="17.6301" stroke="#000000" class="other" y1="5.976"/>
<line x2="21.2301" y2="5.976" stroke-width="0.432002" stroke-linecap="round" xmlns="http://www.w3.org/2000/svg" x1="19.4301" stroke="#000000" class="other" y1="0.216"/>
<line x2="21.9501" y2="3.096" stroke-width="0.432002" stroke-linecap="round" xmlns="http://www.w3.org/2000/svg" x1="21.2301" stroke="#000000" class="other" y1="5.976"/>
<line id="connector1pin" x2="21.9501" y2="3.096" stroke-width="0.700001" stroke-linecap="round" xmlns="http://www.w3.org/2000/svg" x1="29.1502" stroke="#787878" class="pin" connectorname="2" y1="3.096"/>
<g id="connector1terminal" height="0.000283465" stroke-width="0" xmlns="http://www.w3.org/2000/svg" x="29.1502" width="0.000283466" stroke="none" fill="none" class="terminal" y="3.096"/>
<text font-size="2.50001" text-anchor="middle" font-family="'Droid Sans'" stroke-width="0" xmlns="http://www.w3.org/2000/svg" x="25.5501" stroke="none" fill="#8c8c8c" class="text" y="2.046">2</text>
<line id="connector0pin" x2="7.55002" y2="3.096" stroke-width="0.700001" stroke-linecap="round" xmlns="http://www.w3.org/2000/svg" x1="0.350001" stroke="#787878" class="pin" connectorname="1" y1="3.096"/>
<g id="connector0terminal" height="0.000283465" stroke-width="0" xmlns="http://www.w3.org/2000/svg" x="0.350001" width="0.000283466" stroke="none" fill="none" class="terminal" y="3.096"/>
<text font-size="2.50001" text-anchor="middle" font-family="'Droid Sans'" stroke-width="0" xmlns="http://www.w3.org/2000/svg" x="3.95001" stroke="none" fill="#8c8c8c" class="text" y="2.046">1</text>
</g>
</g></g></g><g partID='58830'><g transform='translate(139.896,136.45)' ><g transform='matrix(0,1,-1,0,0,0)'  ><g id="schematic" xmlns="http://www.w3.org/2000/svg">
<line x2="8.63003" y2="0.216" stroke-width="0.432002" stroke-linecap="round" xmlns="http://www.w3.org/2000/svg" x1="7.55002" stroke="#000000" class="other" y1="3.096"/>
<line x2="10.43" y2="5.976" stroke-width="0.432002" stroke-linecap="round" xmlns="http://www.w3.org/2000/svg" x1="8.63003" stroke="#000000" class="other" y1="0.216"/>
<line x2="12.23" y2="0.216" stroke-width="0.432002" stroke-linecap="round" xmlns="http://www.w3.org/2000/svg" x1="10.43" stroke="#000000" class="other" y1="5.976"/>
<line x2="14.03" y2="5.976" stroke-width="0.432002" stroke-linecap="round" xmlns="http://www.w3.org/2000/svg" x1="12.23" stroke="#000000" class="other" y1="0.216"/>
<line x2="15.8301" y2="0.216" stroke-width="0.432002" stroke-linecap="round" xmlns="http://www.w3.org/2000/svg" x1="14.03" stroke="#000000" class="other" y1="5.976"/>
<line x2="17.6301" y2="5.976" stroke-width="0.432002" stroke-linecap="round" xmlns="http://www.w3.org/2000/svg" x1="15.8301" stroke="#000000" class="other" y1="0.216"/>
<line x2="19.4301" y2="0.216" stroke-width="0.432002" stroke-linecap="round" xmlns="http://www.w3.org/2000/svg" x1="17.6301" stroke="#000000" class="other" y1="5.976"/>
<line x2="21.2301" y2="5.976" stroke-width="0.432002" stroke-linecap="round" xmlns="http://www.w3.org/2000/svg" x1="19.4301" stroke="#000000" class="other" y1="0.216"/>
<line x2="21.9501" y2="3.096" stroke-width="0.432002" stroke-linecap="round" xmlns="http://www.w3.org/2000/svg" x1="21.2301" stroke="#000000" class="other" y1="5.976"/>
<line id="connector1pin" x2="21.9501" y2="3.096" stroke-width="0.700001" stroke-linecap="round" xmlns="http://www.w3.org/2000/svg" x1="29.1502" stroke="#787878" class="pin" connectorname="2" y1="3.096"/>
<g id="connector1terminal" height="0.000283465" stroke-width="0" xmlns="http://www.w3.org/2000/svg" x="29.1502" width="0.000283466" stroke="none" fill="none" class="terminal" y="3.096"/>
<text font-size="2.50001" text-anchor="middle" font-family="'Droid Sans'" stroke-width="0" xmlns="http://www.w3.org/2000/svg" x="25.5501" stroke="none" fill="#8c8c8c" class="text" y="2.046">2</text>
<line id="connector0pin" x2="7.55002" y2="3.096" stroke-width="0.700001" stroke-linecap="round" xmlns="http://www.w3.org/2000/svg" x1="0.350001" stroke="#787878" class="pin" connectorname="1" y1="3.096"/>
<g id="connector0terminal" height="0.000283465" stroke-width="0" xmlns="http://www.w3.org/2000/svg" x="0.350001" width="0.000283466" stroke="none" fill="none" class="terminal" y="3.096"/>
<text font-size="2.50001" text-anchor="middle" font-family="'Droid Sans'" stroke-width="0" xmlns="http://www.w3.org/2000/svg" x="3.95001" stroke="none" fill="#8c8c8c" class="text" y="2.046">1</text>
</g>
</g></g></g><g partID='62180'><line stroke-linecap='round' stroke='#404040' x1='136.8' y1='136.8' x2='136.8' y2='115.2' stroke-width='0.699998' /></g><g partID='62220'><line stroke-linecap='round' stroke='#404040' x1='136.8' y1='93.6' x2='136.821' y2='64.8517' stroke-width='0.699998' /></g><g partID='62920'><line stroke-linecap='round' stroke='#404040' x1='136.821' y1='64.8517' x2='108' y2='64.7999' stroke-width='0.699998' /></g><g partID='62260'><line stroke-linecap='round' stroke='#404040' x1='136.8' y1='165.6' x2='57.5999' y2='165.6' stroke-width='0.699998' /></g><circle  fill="black" cx="136.8" cy="165.6" r="1.44" stroke-width="0" stroke="none" /><g partID='62340'><line stroke-linecap='round' stroke='#404040' x1='187.2' y1='136.8' x2='187.2' y2='115.2' stroke-width='0.699998' /></g><g partID='62380'><line stroke-linecap='round' stroke='#404040' x1='136.8' y1='165.6' x2='187.2' y2='165.6' stroke-width='0.699998' /></g><circle  fill="black" cx="136.8" cy="165.6" r="1.44" stroke-width="0" stroke="none" /><circle  fill="black" cx="187.2" cy="165.6" r="1.44" stroke-width="0" stroke="none" /><g partID='62440'><line stroke-linecap='round' stroke='#404040' x1='187.2' y1='165.6' x2='244.8' y2='165.6' stroke-width='0.699998' /></g><circle  fill="black" cx="187.2" cy="165.6" r="1.44" stroke-width="0" stroke="none" /><g partID='62480'><line stroke-linecap='round' stroke='#404040' x1='244.8' y1='136.8' x2='244.8' y2='115.2' stroke-width='0.699998' /></g><g partID='63020'><line stroke-linecap='round' stroke='#404040' x1='244.926' y1='50.5498' x2='244.8' y2='93.6' stroke-width='0.699998' /></g><g partID='62520'><line stroke-linecap='round' stroke='#404040' x1='108' y1='50.3999' x2='244.926' y2='50.5498' stroke-width='0.699998' /></g><g partID='62560'><line stroke-linecap='round' stroke='#404040' x1='187.2' y1='93.6' x2='187.271' y2='57.4857' stroke-width='0.699998' /></g><g partID='62960'><line stroke-linecap='round' stroke='#404040' x1='187.271' y1='57.4857' x2='108' y2='57.5999' stroke-width='0.699998' /></g><g partID='59250' id='partLabel'><g transform='translate(255.06,99.2383)' ><g font-size='7' font-style='normal' font-weight='normal' fill='#000000' font-family="'DroidSans'" id='schematicLabel' fill-opacity='1' stroke='none' ><text x='0' y='5.25'>Green</text></g></g></g><g partID='58220' id='partLabel'><g transform='translate(144.207,101.967)' ><g font-size='7' font-style='normal' font-weight='normal' fill='#000000' font-family="'DroidSans'" id='schematicLabel' fill-opacity='1' stroke='none' ><text x='0' y='5.25'>Red</text></g></g></g><g partID='59010' id='partLabel'><g transform='translate(194.731,102.649)' ><g font-size='7' font-style='normal' font-weight='normal' fill='#000000' font-family="'DroidSans'" id='schematicLabel' fill-opacity='1' stroke='none' ><text x='0' y='5.25'>Yellow</text></g></g></g><g partID='59170' id='partLabel'><g transform='translate(193.28,147.308)' ><g font-size='7' font-style='normal' font-weight='normal' fill='#000000' font-family="'DroidSans'" id='schematicLabel' fill-opacity='1' stroke='none' ><text x='0' y='5.25'>220&#x3a9;</text></g></g></g><g partID='58830' id='partLabel'><g transform='translate(143.954,148.217)' ><g font-size='7' font-style='normal' font-weight='normal' fill='#000000' font-family="'DroidSans'" id='schematicLabel' fill-opacity='1' stroke='none' ><text x='0' y='5.25'>220&#x3a9;</text></g></g></g><g partID='59270' id='partLabel'><g transform='translate(250.447,146.874)' ><g font-size='7' font-style='normal' font-weight='normal' fill='#000000' font-family="'DroidSans'" id='schematicLabel' fill-opacity='1' stroke='none' ><text x='0' y='5.25'>220&#x3a9;</text></g></g></g></svg>